<?xml version="1.0" standalone="no"?>
<!DOCTYPE svg PUBLIC "-//W3C//DTD SVG 20010904//EN"
 "http://www.w3.org/TR/2001/REC-SVG-20010904/DTD/svg10.dtd">
<svg version="1.0" xmlns="http://www.w3.org/2000/svg"
 width="396.000000pt" height="410.000000pt" viewBox="0 0 396.000000 410.000000"
 preserveAspectRatio="xMidYMid meet">

<g transform="translate(0.000000,410.000000) scale(0.100000,-0.100000)"
fill="#000000" stroke="none">
<path d="M1985 3874 c-280 -162 -359 -208 -1385 -799 -379 -219 -494 -286
-507 -296 -6 -6 -17 -8 -23 -4 -14 9 -13 -14 11 -140 11 -60 31 -175 45 -255
14 -80 30 -166 35 -192 25 -130 30 -157 39 -213 6 -33 13 -82 16 -110 3 -27 9
-59 14 -70 7 -17 84 -439 106 -582 4 -24 12 -50 19 -59 11 -15 15 -14 51 9 48
31 534 310 627 361 38 20 72 34 76 32 4 -3 24 10 45 29 l38 34 -21 63 c-11 35
-27 112 -36 171 -23 169 -73 277 -178 386 -57 59 -58 60 -35 72 13 6 122 69
243 139 121 70 323 187 449 260 126 73 238 137 248 143 14 9 23 9 39 -1 32
-20 69 8 69 53 l0 34 -107 -62 c-117 -69 -467 -271 -793 -458 -315 -181 -290
-164 -290 -199 0 -16 3 -30 7 -30 3 0 26 12 51 26 l44 26 29 -28 c15 -15 26
-30 24 -34 -5 -8 -181 -110 -190 -110 -3 0 -5 27 -5 60 0 59 -1 60 -21 49 -12
-6 -19 -7 -15 -1 7 12 -30 46 -42 38 -15 -9 -22 20 -22 94 0 42 5 71 12 78 7
5 132 78 278 162 146 84 425 245 620 358 l355 205 52 -29 c29 -15 54 -33 54
-39 6 -48 -5 -251 -14 -257 -7 -4 4 -27 30 -65 77 -110 108 -190 122 -316 11
-94 28 -176 40 -196 7 -10 36 3 134 60 l125 73 -5 35 c-11 77 -64 396 -98 581
-105 578 -158 923 -150 983 3 26 2 47 -2 47 -4 0 -98 -52 -208 -116z m-1585
-1173 c0 -5 -6 -14 -14 -20 -11 -9 -16 -9 -21 0 -4 6 -1 15 6 20 18 11 29 11
29 0z m-50 -30 c0 -5 -7 -14 -15 -21 -12 -10 -15 -10 -15 2 0 8 3 18 7 21 9
10 23 9 23 -2z m50 -56 c-19 -23 -30 -18 -30 14 0 34 21 46 34 20 6 -12 5 -24
-4 -34z m-33 -37 c9 -59 3 -88 -17 -88 -13 0 -28 134 -16 142 21 14 24 8 33
-54z m48 -33 c0 -21 -5 -40 -11 -42 -13 -4 -29 62 -19 78 14 21 30 1 30 -36z
m-25 -97 c0 -10 -2 -18 -4 -18 -2 0 -11 -3 -20 -6 -12 -5 -16 1 -16 24 0 31
19 48 32 28 4 -6 8 -19 8 -28z m45 11 c7 -33 -5 -56 -24 -45 -12 8 -15 59 -4
69 13 14 22 6 28 -24z m-37 -76 c-4 -36 -38 -45 -38 -10 0 27 7 37 27 37 10 0
13 -9 11 -27z m12 -72 c0 -34 -26 -49 -35 -20 -7 20 9 49 26 49 5 0 9 -13 9
-29z m40 -71 c0 -14 -49 -44 -58 -35 -4 3 4 15 17 26 26 21 41 24 41 9z"/>
<path d="M2382 2081 c-101 -58 -104 -61 -45 -48 26 5 64 11 83 12 35 2 100 29
100 43 0 4 -13 14 -29 23 -28 16 -30 16 -109 -30z"/>
<path d="M2601 2021 c-11 -7 -5 -13 24 -25 53 -22 80 -12 40 14 -33 22 -44 24
-64 11z"/>
<path d="M2709 1957 c-9 -7 -13 -19 -10 -27 5 -13 13 -13 51 -4 l45 11 -32 16
c-38 20 -34 20 -54 4z"/>
<path d="M1171 1591 c-9 -6 -10 -11 -2 -15 21 -13 11 -26 -16 -21 -21 4 -23 3
-9 -3 19 -8 19 -9 -2 -14 -12 -4 -25 -2 -28 3 -7 12 -24 12 -24 0 0 -5 8 -11
18 -14 9 -4 28 -14 42 -24 24 -17 24 -17 11 0 -8 10 -12 19 -10 21 12 10 69
24 69 17 0 -5 -12 -12 -26 -15 -24 -7 -25 -8 -10 -25 9 -10 13 -20 10 -24 -3
-3 8 -15 26 -26 l32 -19 -23 -15 c-13 -8 -69 -41 -124 -72 -55 -32 -111 -64
-124 -72 l-24 -15 32 -20 32 -20 150 86 151 87 26 -17 c17 -11 4 8 -32 49 -32
37 -63 67 -68 67 -5 0 -6 4 -3 10 4 7 -2 7 -19 1 -19 -8 -26 -6 -30 5 -4 11
-1 14 13 9 14 -4 18 -1 17 17 -1 16 -7 22 -19 20 -10 -2 -17 3 -17 13 0 10 5
13 13 9 8 -5 8 -2 -2 9 -7 9 -14 17 -15 17 0 0 -7 -4 -15 -9z m54 -111 c-3 -5
-11 -10 -16 -10 -6 0 -7 5 -4 10 3 6 11 10 16 10 6 0 7 -4 4 -10z"/>
<path d="M1321 1280 c-109 -63 -110 -65 -71 -85 31 -16 31 -16 125 37 52 29
95 55 95 58 0 5 -54 40 -62 40 -1 0 -41 -23 -87 -50z"/>
<path d="M1459 1236 c-30 -18 -127 -74 -216 -125 -90 -51 -163 -97 -163 -101
0 -5 13 -15 30 -23 29 -15 32 -14 108 31 44 26 143 83 220 127 125 71 139 82
124 93 -40 32 -48 31 -103 -2z"/>
<path d="M832 1187 l-33 -20 33 -19 c31 -20 33 -20 66 -2 32 17 33 19 15 32
-37 28 -48 29 -81 9z"/>
<path d="M1430 1097 c-97 -56 -193 -113 -215 -126 l-40 -23 35 -18 c41 -21 3
-38 294 130 l179 104 -23 18 c-12 10 -30 18 -39 17 -9 0 -95 -47 -191 -102z"/>
<path d="M1033 1114 c-35 -19 -63 -39 -63 -43 0 -5 14 -14 31 -21 28 -12 36
-11 86 16 75 40 81 49 44 68 -16 9 -31 16 -33 16 -2 0 -31 -16 -65 -36z"/>
<path d="M1695 1126 c-11 -7 -104 -62 -207 -121 -104 -58 -190 -111 -193 -115
-3 -5 8 -16 25 -25 30 -16 32 -15 118 33 184 105 337 194 346 202 4 5 -5 15
-22 24 -38 19 -42 20 -67 2z"/>
<path d="M414 1065 c18 -41 46 -67 120 -108 28 -16 58 -34 66 -41 8 -7 94 -57
190 -112 96 -54 182 -103 191 -109 9 -5 43 -25 75 -43 32 -17 66 -37 74 -42 8
-5 44 -26 80 -46 36 -20 81 -46 100 -57 19 -11 87 -49 150 -85 63 -35 134 -75
157 -89 51 -28 81 -25 139 16 23 16 51 32 63 36 11 3 21 11 21 16 0 6 4 8 9 4
6 -3 14 2 19 11 5 9 12 15 15 15 25 -3 31 -1 19 11 -8 8 -15 8 -25 -1 -11 -9
-17 -8 -27 4 -11 13 -10 14 5 9 13 -5 16 -4 11 4 -5 8 -2 10 9 6 8 -4 23 0 32
7 15 12 16 12 10 -3 -3 -10 -2 -20 4 -23 5 -4 12 0 15 9 3 8 13 12 22 9 14 -4
15 -3 2 5 -8 6 -17 9 -21 6 -4 -2 -12 3 -19 11 -11 14 -10 14 14 5 34 -13 36
-12 36 1 0 5 -4 8 -9 4 -5 -3 -12 -1 -15 4 -11 18 15 23 33 7 16 -14 20 -14
54 3 20 10 34 21 30 24 -3 4 -15 1 -27 -5 -14 -7 -10 0 12 22 17 18 32 36 32
41 0 9 30 20 45 16 6 -1 9 -6 7 -10 -1 -5 2 -6 8 -2 8 5 8 11 -1 21 -9 11 -15
11 -40 -2 -16 -8 -29 -19 -29 -25 0 -6 -5 -7 -12 -3 -6 4 -8 3 -4 -4 3 -6 -8
-21 -26 -33 l-33 -23 25 29 25 29 -25 -15 c-14 -9 -62 -37 -107 -63 -77 -44
-110 -76 -78 -76 7 0 16 -4 19 -9 4 -5 -4 -7 -16 -3 -11 3 -19 1 -16 -4 4 -5
-5 -10 -19 -11 -16 0 -21 2 -13 7 8 5 9 10 1 14 -12 8 -51 -10 -51 -23 0 -4
-6 -8 -12 -9 -7 -1 -28 -4 -45 -8 -28 -5 -50 4 -145 58 -192 110 -1071 619
-1106 640 l-33 20 15 -37z m1594 -548 c13 5 14 3 5 -7 -13 -14 -33 -5 -32 13
0 9 2 9 5 0 3 -7 13 -9 22 -6z m-98 -31 c0 -3 -4 -8 -10 -11 -5 -3 -10 -1 -10
4 0 6 5 11 10 11 6 0 10 -2 10 -4z"/>
<path d="M2340 721 c0 -6 4 -13 10 -16 6 -3 7 1 4 9 -7 18 -14 21 -14 7z"/>
<path d="M2100 580 c-9 -6 -10 -10 -3 -10 6 0 15 5 18 10 8 12 4 12 -15 0z"/>
<path d="M1797 444 c-8 -8 1 -24 12 -24 4 0 8 7 8 15 0 16 -9 20 -20 9z"/>
</g>
</svg>
