<svg width="71" height="66" viewBox="0 0 71 66" fill="none" xmlns="http://www.w3.org/2000/svg">
<g id="logo">
<path d="M3.60276 6.50499V7.7952C3.60276 9.69145 2.38168 11.3374 1.25905 12.8657C0.467541 13.9431 -6.29201e-08 15.2734 0 16.7128C6.292e-08 18.1523 0.46754 19.4825 1.25904 20.56C2.38167 22.0882 3.60276 23.7342 3.60276 25.6304L3.60276 32.8144C3.60276 34.7106 2.38167 36.3566 1.25905 37.8848C0.467541 38.9623 1.0307e-06 40.2925 1.09362e-06 41.732C1.15654e-06 43.1714 0.467541 44.5017 1.25904 45.5791C2.38167 47.1074 3.60276 48.7533 3.60276 50.6496L3.60276 57.6442C3.60276 59.855 5.39499 61.6472 7.60583 61.6472H16.8021C18.6983 61.6472 20.3443 62.8683 21.8726 63.991C22.95 64.7825 24.2803 65.25 25.7197 65.25C27.1592 65.25 28.4894 64.7825 29.5669 63.991C31.0951 62.8683 32.7411 61.6472 34.6373 61.6472H43.9337C46.1445 61.6472 47.9367 59.855 47.9367 57.6442L47.9367 50.5389C47.9367 48.6739 49.1194 47.0485 50.2114 45.5365C50.9841 44.4667 51.4394 43.1525 51.4394 41.732C51.4394 40.3115 50.9841 38.9973 50.2114 37.9274C49.1194 36.4155 47.9367 34.7901 47.9367 32.9251V27.8213C47.9367 26.1632 46.5926 24.819 44.9344 24.819C43.2763 24.819 41.9321 26.1632 41.9321 27.8213V32.9251C41.9321 34.7901 40.7494 36.4155 39.6575 37.9274C38.8848 38.9973 38.4294 40.3115 38.4294 41.732C38.4294 43.1525 38.8848 44.4667 39.6575 45.5365C40.7494 47.0485 41.9321 48.6739 41.9321 50.5389V50.6388C41.9321 53.4023 39.6918 55.6426 36.9283 55.6426H34.4139C32.5802 55.6426 30.9758 54.498 29.4804 53.4367C28.4186 52.6831 27.1209 52.24 25.7197 52.24C24.3185 52.24 23.0208 52.6831 21.959 53.4367C20.4637 54.498 18.8592 55.6426 17.0255 55.6426H14.6112C11.8477 55.6426 9.60736 53.4024 9.60736 50.6388V50.4261C9.60736 48.5925 10.752 46.988 11.8133 45.4927C12.5669 44.4309 13.01 43.1332 13.01 41.732C13.01 40.3308 12.5669 39.0331 11.8133 37.9712C10.752 36.4759 9.60736 34.8715 9.60736 33.0378L9.60736 25.407C9.60736 23.5733 10.752 21.9689 11.8133 20.4735C12.5669 19.4117 13.01 18.114 13.01 16.7128C13.01 15.3116 12.5669 14.0139 11.8133 12.9521C10.752 11.4568 9.60736 9.85231 9.60736 8.01865L9.60736 6.50499C9.60736 4.84686 8.26319 3.50269 6.60506 3.50269C4.94694 3.50269 3.60276 4.84686 3.60276 6.50499Z" fill="#059FFF"/>
<path d="M22.7174 37.3286C22.7174 38.9867 24.0616 40.3309 25.7197 40.3309C27.3778 40.3309 28.722 38.9867 28.722 37.3286V32.1248C28.722 30.2597 29.9047 28.6344 30.9967 27.1224C31.7694 26.0526 32.2247 24.7384 32.2247 23.3179C32.2247 21.8973 31.7693 20.5831 30.9966 19.5133C29.9047 18.0014 28.722 16.376 28.722 14.511C28.722 11.7475 30.9623 9.50729 33.7257 9.50729H36.1275C37.9926 9.50729 39.6179 10.69 41.1299 11.782C42.1997 12.5546 43.5139 13.01 44.9344 13.01C46.355 13.01 47.6691 12.5546 48.739 11.782C50.2509 10.69 51.8763 9.50729 53.7414 9.50729H56.1114C58.8372 9.50729 61.0468 11.7169 61.0468 14.4426C61.0468 16.3129 59.8453 17.9366 58.7283 19.4366C57.9215 20.5201 57.444 21.8632 57.444 23.3179C57.444 24.7573 57.9116 26.0876 58.7031 27.165C59.8257 28.6932 61.0468 30.3392 61.0468 32.2355V39.4194C61.0468 41.3157 59.8257 42.9617 58.7031 44.4899C57.9116 45.5674 57.444 46.8976 57.444 48.337C57.444 49.7765 57.9116 51.1067 58.7031 52.1842C59.8257 53.7124 61.0468 55.3584 61.0468 57.2546V58.6449C61.0468 60.3031 62.391 61.6472 64.0491 61.6472C65.7072 61.6472 67.0514 60.3031 67.0514 58.6449V57.0312C67.0514 55.1975 68.1961 53.5931 69.2573 52.0978C70.011 51.036 70.454 49.7382 70.454 48.337C70.454 46.9358 70.011 45.6381 69.2573 44.5763C68.1961 43.081 67.0514 41.4765 67.0514 39.6429V32.012C67.0514 30.1784 68.1961 28.5739 69.2573 27.0786C70.011 26.0168 70.454 24.7191 70.454 23.3179C70.454 21.9167 70.011 20.6189 69.2573 19.5571C68.1961 18.0618 67.0514 16.4574 67.0514 14.6237V7.50575C67.0514 5.29492 65.2591 3.50268 63.0483 3.50268L53.7413 3.50268C51.8763 3.50268 50.2509 2.31999 48.739 1.22801C47.6691 0.455333 46.355 -6.20932e-08 44.9344 0C43.5139 6.20932e-08 42.1997 0.455333 41.1299 1.22801C39.6179 2.31999 37.9925 3.50268 36.1275 3.50268L26.7205 3.50268C24.5096 3.50269 22.7174 5.29492 22.7174 7.50575V14.5109C22.7174 16.376 21.5347 18.0014 20.4427 19.5133C19.6701 20.5832 19.2147 21.8973 19.2147 23.3179C19.2147 24.7384 19.6701 26.0526 20.4427 27.1224C21.5347 28.6344 22.7174 30.2597 22.7174 32.1248L22.7174 37.3286Z" fill="#059FFF"/>
</g>
</svg>
